<?xml version="1.0" standalone="no"?> <!DOCTYPE svg PUBLIC "-//W3C//DTD SVG 1.0//EN" "http://www.w3.org/TR/2001/REC-SVG-20010904/DTD/svg10.dtd" > <svg xmlns="http://www.w3.org/2000/svg" width="100%" height="100%">
<defs >
<font id="gillsansstdcondensed0" horiz-adv-x="623" ><font-face
    font-family="Gill Sans Std Condensed"
    units-per-em="2048"
    panose-1="2 11 5 6 2 1 4 2 2 3"
    ascent="1397"
    descent="-651"
    alphabetic="0" />
<missing-glyph horiz-adv-x="1024" d="M0 0V1434H1024V0H0ZM512 809L860 1331H164L512 809ZM573 717L922 195V1239L573 717ZM164 102H860L512 625L164 102ZM102 1239V195L451 717L102 1239Z" />
<glyph unicode=" " glyph-name="space" horiz-adv-x="681" />
<glyph unicode="!" glyph-name="exclam" horiz-adv-x="362" d="M70 48T70 94T103 172T182 205T260 173T293 94T261 15T182 -18T103 15ZM124 1380T182 1380T263 1317T287 1133Q287 942 250 667T182 391T115 666T78 1133Q78 1253 101 1316Z" />
<glyph unicode="&quot;" glyph-name="quotedbl" horiz-adv-x="727" d="M428 1466H633V1221L586 946H475L428 1221V1466ZM96 1466H301V1221L254 946H143L96 1221V1466Z" />
<glyph unicode="#" glyph-name="numbersign" horiz-adv-x="1368" d="M492 557H807L877 909H561L492 557ZM141 1059H442L530 1491H680L592 1059H907L995 1491H1145L1057 1059H1227V909H1026L956 557H1227V408H926L838 -25H688L776 408H461L373 -25H223L311 408H141V557H342L412
909H141V1059Z" />
<glyph unicode="$" glyph-name="dollar" horiz-adv-x="768" d="M53 59V236Q135 187 193 168T326 147V629Q179 743 117 835T55 1030Q55 1139 128 1226T326 1331V1397H444V1341Q508 1340 558 1326T682 1276V1106Q552 1181 444 1184V772Q713 572 713 336Q713 212
640 119T444 -6V-211H326V-18Q163 -3 53 59ZM444 532V170Q553 224 553 330Q553 447 444 532ZM326 868V1169Q219 1127 219 1036Q219 991 243 953T326 868Z" />
<glyph unicode="%" glyph-name="percent" horiz-adv-x="1236" d="M825 348Q825 711 1014 711Q1202 711 1202 350Q1202 -14 1014 -14Q825 -14 825 348ZM1069 340Q1069 485 1058 543T1014 602Q983 602 971 544T958 338Q958 209 971 153T1014 96Q1044 96 1056 151T1069
340ZM35 1020Q35 1382 223 1382Q412 1382 412 1022Q412 657 223 657Q35 657 35 1020ZM279 1012Q279 1156 268 1215T223 1274Q192 1274 180 1216T168 1010Q168 880 181 824T223 768Q254 768 266 823T279 1012ZM201 -61L901 1386H1028L330 -61H201Z" />
<glyph unicode="&amp;" glyph-name="ampersand" horiz-adv-x="854" d="M633 -18L582 102Q477 -18 360 -18Q233 -18 144 99T55 383Q55 509 104 609T260 807Q184 978 184 1090Q184 1210 258 1296T436 1382Q535 1382 602 1309T670 1128Q670 1039 622 955T469 778L602
465H606Q637 590 649 688H805Q797 589 767 476T692 268L823 -18H633ZM510 264L336 649Q274 572 253 521T231 397Q231 293 272 226T375 158Q414 158 444 182T510 264ZM399 924Q470 995 494 1036T518 1130Q518 1180 495 1212T434 1245Q396 1245 370 1209T344 1120Q344
1030 399 924Z" />
<glyph unicode="&apos;" glyph-name="quotesingle" horiz-adv-x="391" d="M94 1466H299V1221L252 946H141L94 1221V1466Z" />
<glyph unicode="(" glyph-name="parenleft" horiz-adv-x="468" d="M254 771T254 438T298 -107T453 -504H360Q208 -260 146 -54T84 438T146 930T360 1380H453Q342 1195 298 983Z" />
<glyph unicode=")" glyph-name="parenright" horiz-adv-x="468" d="M215 105T215 438T171 983T16 1380H109Q261 1137 323 930T385 438T323 -53T109 -504H16Q127 -319 171 -107Z" />
<glyph unicode="*" glyph-name="asterisk" horiz-adv-x="724" d="M664 1145Q664 1065 508 1065Q448 1065 412 1071Q412 1063 411 1059T410 1053T405 1046T399 1038Q503 976 539 942T575 872Q575 846 554 826T504 805Q421 805 383 1024Q366 1018 364 1018T344 1024Q303
805 223 805Q194 805 173 825T152 872Q152 907 192 944T326 1038Q310 1054 313 1071Q277 1065 217 1065Q136 1065 100 1084T63 1145Q63 1172 82 1191T129 1210Q164 1210 207 1185T322 1096Q329 1115 350 1118Q295 1245 295 1303Q295 1338 314 1360T362 1382T410
1361T430 1305Q430 1245 375 1118Q395 1115 406 1096Q475 1159 518 1184T596 1210Q624 1210 644 1191T664 1145Z" />
<glyph unicode="+" glyph-name="plus" horiz-adv-x="1366" d="M1167 637H768V238H598V637H199V807H598V1206H768V807H1167V637Z" />
<glyph unicode="," glyph-name="comma" horiz-adv-x="362" d="M76 -266L74 -248Q142 -147 131 -16Q91 -7 68 22T45 92Q45 142 76 175T156 209Q214 209 250 159T287 27Q287 -176 76 -266Z" />
<glyph unicode="-" glyph-name="hyphen" horiz-adv-x="491" d="M59 545H430V373H59V545Z" />
<glyph unicode="." glyph-name="period" horiz-adv-x="362" d="M136 205T182 205T260 173T293 94T261 15T182 -18T103 15T70 94T103 172Z" />
<glyph unicode="/" glyph-name="slash" horiz-adv-x="575" d="M20 -18L410 1368H555L166 -18H20Z" />
<glyph unicode="0" glyph-name="zero" horiz-adv-x="747" d="M76 678Q76 1382 371 1382Q457 1382 517 1330T609 1178T656 958T670 678Q670 514 655 390T614 188T550 62T468 -6T371 -25Q224 -25 150 140T76 678ZM373 1223Q346 1223 326 1204T293 1144T272 1060T261
945T257 820T256 678Q256 403 283 270T373 137Q439 137 464 279T489 678Q489 952 466 1087T373 1223Z" />
<glyph unicode="1" glyph-name="one" horiz-adv-x="747" d="M285 0V1368H461V0H285Z" />
<glyph unicode="2" glyph-name="two" horiz-adv-x="747" d="M70 0V27Q430 623 430 967Q430 1071 382 1133T252 1196Q196 1196 98 1151V1333Q204 1382 297 1382Q443 1382 526 1279T610 999Q610 846 546 668T319 174H639V0H70Z" />
<glyph unicode="3" glyph-name="three" horiz-adv-x="747" d="M94 16V190Q183 147 246 147Q327 147 376 214T426 395Q426 499 379 563T248 639V813Q410 837 410 1014Q410 1106 366 1160T246 1214Q214 1214 190 1207T125 1176V1348Q197 1382 283 1382Q415 1382
502 1285T590 1042Q590 935 541 861T383 731Q489 694 547 602T606 379Q606 211 509 93T270 -25Q201 -25 94 16Z" />
<glyph unicode="4" glyph-name="four" horiz-adv-x="747" d="M414 0V375H55V532L426 1382H590V498H666V375H590V0H414ZM414 498V1047H410L176 498H414Z" />
<glyph unicode="5" glyph-name="five" horiz-adv-x="747" d="M106 12V178Q193 147 244 147Q341 147 397 217T453 408Q453 526 394 591T227 657Q180 657 156 649V1368H590V1208H328V803Q475 784 554 683T633 414Q633 226 531 101T276 -25Q193 -25 106 12Z" />
<glyph unicode="6" glyph-name="six" horiz-adv-x="747" d="M602 1368L340 829Q383 840 414 840Q529 840 599 725T670 422Q670 231 588 103T381 -25Q343 -25 306 -12T231 34T165 116T118 244T100 424Q100 703 225 956L426 1368H602ZM281 408Q281 147 385 147Q440
147 464 219T489 436Q489 668 383 668Q281 668 281 408Z" />
<glyph unicode="7" glyph-name="seven" horiz-adv-x="747" d="M201 12L444 1208H94V1368H653L367 -25L201 12Z" />
<glyph unicode="8" glyph-name="eight" horiz-adv-x="747" d="M80 379Q80 499 117 578T238 711Q163 768 130 839T96 1012Q96 1091 115 1155T163 1261T230 1330T304 1370T373 1382Q421 1382 468 1359T557 1293T625 1177T651 1012Q651 912 618 840T510 711Q593 657
630 579T668 385Q668 200 588 88T373 -25Q240 -25 160 86T80 379ZM371 784Q414 784 439 838T465 985Q465 1093 441 1151T371 1210T301 1153T276 987Q276 893 301 839T371 784ZM322 147T373 147T455 213T487 385Q487 493 457 552T373 612T290 553T260 385Q260 279
291 213Z" />
<glyph unicode="9" glyph-name="nine" horiz-adv-x="747" d="M178 0L432 528Q386 518 358 518Q242 518 171 634T100 938Q100 1128 183 1255T389 1382Q513 1382 591 1263T670 932Q670 785 640 660T547 406L352 0H178ZM489 690T489 950T387 1210Q281 1210 281 924Q281
690 387 690Q489 690 489 950Z" />
<glyph unicode=":" glyph-name="colon" horiz-adv-x="362" d="M136 932T182 932T260 900T293 821Q293 775 261 742T182 709T103 742T70 821T103 899ZM136 205T182 205T260 173T293 94T261 15T182 -18T103 15T70 94T103 172Z" />
<glyph unicode=";" glyph-name="semicolon" horiz-adv-x="362" d="M76 -266L74 -248Q142 -147 131 -16Q91 -7 68 22T45 92Q45 142 76 175T156 209Q214 209 250 159T287 27Q287 -176 76 -266ZM136 932T182 932T260 900T293 821Q293 775 261 742T182 709T103 742T70
821T103 899Z" />
<glyph unicode="&lt;" glyph-name="less" horiz-adv-x="1366" d="M199 641V809L1169 1219V1038L399 725L1169 412V231L199 641Z" />
<glyph unicode="=" glyph-name="equal" horiz-adv-x="1366" d="M1167 418H199V588H1167V418ZM1167 860H199V1030H1167V860Z" />
<glyph unicode="&gt;" glyph-name="greater" horiz-adv-x="1366" d="M1169 641L199 231V412L969 725L199 1038V1219L1169 809V641Z" />
<glyph unicode="?" glyph-name="question" horiz-adv-x="512" d="M66 1184L193 1380Q325 1371 402 1292T479 1087Q479 1028 458 965T406 848T338 732T270 614T220 488T201 350Q150 373 122 421T94 530Q94 607 125 688T192 827T260 952T291 1071Q291 1123 254 1160T166
1198Q130 1198 80 1171L66 1184ZM119 48T119 94T152 172T231 205Q278 205 310 173T342 94T310 15T231 -18T152 15Z" />
<glyph unicode="@" glyph-name="at" horiz-adv-x="2078" d="M1417 1012L1292 221Q1284 183 1291 163T1327 143Q1351 143 1386 158T1464 212T1543 305T1603 446T1628 637Q1628 898 1478 1052T1071 1206Q877 1206 726 1115T492 857T408 477Q408 162 586 -29T1057
-221Q1202 -221 1327 -176T1575 -35H1800Q1682 -189 1479 -289T1061 -389Q829 -389 640 -276T344 35T236 477Q236 559 249 643T293 817T368 986T481 1139T633 1263T829 1345T1071 1376Q1216 1376 1337 1336T1542 1225T1686 1060T1772 859T1800 637Q1800 527 1773
429T1700 261T1597 135T1480 44T1364 -7T1262 -25Q1199 -25 1162 3T1106 94Q1039 29 986 2T866 -25Q722 -25 632 94T541 406Q541 559 593 704T745 948T969 1047Q1042 1047 1095 1014T1204 899L1223 1012H1417ZM762 350Q762 248 798 191T899 133Q955 133 1012 188Q1066
242 1100 393T1135 688Q1135 778 1102 826T1004 874Q930 874 874 797T790 603T762 350Z" />
<glyph unicode="A" glyph-name="A" horiz-adv-x="724" d="M14 0L272 1376H455L711 0H541L492 303H238L184 0H14ZM264 467H461L365 1040H360L264 467Z" />
<glyph unicode="B" glyph-name="B" horiz-adv-x="788" d="M121 0V1368H330Q489 1368 589 1267T690 1030Q690 939 644 864T512 735Q721 637 721 395Q721 319 697 251T624 126T488 34T287 0H121ZM297 164H328Q431 164 488 223T545 389Q545 487 492 556T328 625H297V164ZM297
788H313Q405 788 459 845T514 1001Q514 1098 461 1151T313 1204H297V788Z" />
<glyph unicode="C" glyph-name="C" horiz-adv-x="681" d="M643 244V59Q542 -18 434 -18Q258 -18 162 162T66 676Q66 828 87 954T152 1178T269 1331T438 1386Q526 1386 627 1315V1137Q539 1223 451 1223Q393 1223 354 1188T292 1082T260 915T250 684Q250 402 297
274T457 145Q500 145 539 166T643 244Z" />
<glyph unicode="D" glyph-name="D" horiz-adv-x="854" d="M113 0V1368H307Q436 1368 528 1319T674 1178T751 964T776 686Q776 522 748 397T677 198T572 79T454 16T332 0H113ZM289 164H315Q469 164 534 282T600 678Q600 968 537 1086T319 1204H289V164Z" />
<glyph unicode="E" glyph-name="E" horiz-adv-x="745" d="M119 0V1368H606V1204H295V795H580V631H295V164H623V0H119Z" />
<glyph unicode="F" glyph-name="F" horiz-adv-x="665" d="M119 0V1368H545V1204H295V797H528V633H295V0H119Z" />
<glyph unicode="G" glyph-name="G" horiz-adv-x="854" d="M762 735V63Q637 -18 520 -18Q313 -18 192 165T70 682Q70 1005 186 1195T500 1386Q562 1386 622 1364T762 1288V1100Q678 1175 623 1204T508 1233Q374 1233 310 1095T246 682Q246 417 313 281T524 145Q548
145 586 152V571H465V735H762Z" />
<glyph unicode="H" glyph-name="H" horiz-adv-x="854" d="M121 0V1368H297V766H557V1368H733V0H557V602H297V0H121Z" />
<glyph unicode="I" glyph-name="I" horiz-adv-x="405" d="M115 0V1368H291V0H115Z" />
<glyph unicode="J" glyph-name="J" horiz-adv-x="425" d="M-49 -406L-68 -246Q12 -257 56 -246T114 -200T129 -76V1368H305V-47Q305 -141 287 -210T230 -332T120 -403T-49 -406Z" />
<glyph unicode="K" glyph-name="K" horiz-adv-x="724" d="M123 0V1368H299V0H123ZM549 0L305 694L498 1368H678L463 717L731 0H549Z" />
<glyph unicode="L" glyph-name="L" horiz-adv-x="641" d="M121 0V1368H297V164H635V0H121Z" />
<glyph unicode="M" glyph-name="M" horiz-adv-x="937" d="M469 866L672 1368H823V0H651L662 989L657 993L485 543H453L281 993L276 989L287 0H115V1368H266L469 866Z" />
<glyph unicode="N" glyph-name="N" horiz-adv-x="854" d="M121 0V1368H264L567 524H571V1368H733V0H590L287 852H283V0H121Z" />
<glyph unicode="O" glyph-name="O" horiz-adv-x="874" d="M72 684Q72 788 84 885T124 1075T193 1235T297 1345T438 1386Q556 1386 640 1288T765 1033T805 684Q805 544 785 428T731 230T649 92T549 9T438 -18Q277 -18 175 167T72 684ZM256 684Q256 426 304 286T440
145Q525 145 573 288T621 684Q621 941 573 1082T436 1223Q385 1223 348 1175T292 1045T265 874T256 684Z" />
<glyph unicode="P" glyph-name="P" horiz-adv-x="768" d="M127 0V1368H313Q498 1368 611 1269T725 989T623 704T340 600H303V0H127ZM303 764H334Q440 764 494 823T549 999Q549 1210 303 1204V764Z" />
<glyph unicode="Q" glyph-name="Q" horiz-adv-x="874" d="M834 -96L719 -272Q612 -258 533 -196T362 -6Q222 48 147 227T72 684Q72 821 93 943T158 1167T273 1327T440 1386Q599 1386 702 1197T805 684Q805 432 743 263T561 18Q661 -109 731 -109Q766 -109 803
-76L834 -96ZM256 684Q256 426 304 286T440 145T574 291T621 684Q621 941 573 1082T436 1223Q384 1223 347 1174T291 1041T264 870T256 684Z" />
<glyph unicode="R" glyph-name="R" horiz-adv-x="747" d="M121 0V1368H268Q350 1368 414 1345T517 1285T583 1197T619 1095T629 989Q629 795 487 696Q597 617 674 281L737 0H553L500 236Q474 346 456 411T413 527T362 597T297 612V0H121ZM297 776H305Q377 776
415 829T453 983Q453 1095 415 1148T297 1204V776Z" />
<glyph unicode="S" glyph-name="S" horiz-adv-x="575" d="M66 35V217Q145 141 219 141Q274 141 313 180T352 274Q352 332 322 410T248 567T161 730T88 904T57 1073Q57 1211 135 1298T336 1386Q404 1386 483 1350V1184Q407 1227 360 1227Q227 1227 227 1096Q227
1037 257 959T331 802T417 641T491 468T522 297Q522 157 444 70T240 -18Q151 -18 66 35Z" />
<glyph unicode="T" glyph-name="T" horiz-adv-x="641" d="M231 0V1204H20V1368H618V1204H408V0H231Z" />
<glyph unicode="U" glyph-name="U" horiz-adv-x="831" d="M111 1368H287V340Q287 250 320 198T416 145Q471 145 508 192T545 332V1368H721V352Q721 268 700 201T646 94T571 28T490 -8T416 -18Q286 -18 199 80T111 338V1368Z" />
<glyph unicode="V" glyph-name="V" horiz-adv-x="661" d="M270 -18L18 1368H203L328 446H332L459 1368H643L391 -18H270Z" />
<glyph unicode="W" glyph-name="W" horiz-adv-x="1236" d="M313 -18L20 1368H205L367 449H371L555 1368H682L856 428H860L1032 1368H1217L924 -18H803L618 897H614L434 -18H313Z" />
<glyph unicode="X" glyph-name="X" horiz-adv-x="724" d="M16 0L256 727L49 1368H238L358 915H362L485 1368H674L467 727L709 0H520L362 508H358L205 0H16Z" />
<glyph unicode="Y" glyph-name="Y" horiz-adv-x="641" d="M229 0V625L14 1368H195L313 831H317L442 1368H625L406 625V0H229Z" />
<glyph unicode="Z" glyph-name="Z" horiz-adv-x="598" d="M33 0L348 1204H70V1368H565L250 164H565V0H33Z" />
<glyph unicode="[" glyph-name="bracketleft" horiz-adv-x="532" d="M164 -483V1368H518V1217H324V-332H518V-483H164Z" />
<glyph unicode="\" glyph-name="backslash" horiz-adv-x="575" d="M555 -18H410L20 1368H166L555 -18Z" />
<glyph unicode="]" glyph-name="bracketright" horiz-adv-x="532" d="M369 -483H14V-332H209V1217H14V1368H369V-483Z" />
<glyph unicode="^" glyph-name="asciicircum" horiz-adv-x="960" d="M240 690H53L408 1491H553L905 690H721L479 1288L240 690Z" />
<glyph unicode="_" glyph-name="underscore" horiz-adv-x="1024" d="M-12 -154H1036V-256H-12V-154Z" />
<glyph unicode="`" glyph-name="grave" horiz-adv-x="681" d="M410 1055H317L172 1354H367L410 1055Z" />
<glyph unicode="a" glyph-name="a" horiz-adv-x="681" d="M659 168V47Q584 -20 535 -20Q445 -20 418 94Q329 -25 244 -25Q172 -25 119 43T66 205Q66 261 83 304T147 391T251 475T412 575V662Q412 780 317 780Q266 780 212 745T88 631V815Q158 881 211 906T330
932Q425 932 498 869T571 688V176Q571 123 596 123Q612 123 659 168ZM412 231V465Q223 350 223 229Q223 184 245 156T301 127Q332 127 361 154T412 231Z" />
<glyph unicode="b" glyph-name="b" horiz-adv-x="724" d="M94 0V1368H254V860H258Q301 932 397 932Q432 932 466 919T535 871T596 785T638 650T655 463Q655 341 633 247T573 97T490 14T393 -14Q312 -14 254 53V0H94ZM254 696V225Q297 137 362 137Q425 137 458
221T492 465Q492 615 455 697T352 780Q293 780 254 696Z" />
<glyph unicode="c" glyph-name="c" horiz-adv-x="575" d="M555 178V25Q476 -25 397 -25Q256 -25 164 108T72 446Q72 658 163 795T397 932Q464 932 541 899V735Q496 762 473 771T422 780Q336 780 286 692T236 451Q236 303 290 215T438 127Q469 127 493 138T555 178Z" />
<glyph unicode="d" glyph-name="d" horiz-adv-x="724" d="M631 0H471V70H467Q411 -14 322 -14Q216 -14 141 109T66 451Q66 664 139 798T330 932Q409 932 471 858V1368H631V0ZM471 231V690Q440 780 367 780Q302 780 266 692T229 446Q229 300 262 223T358 145Q429
145 471 231Z" />
<glyph unicode="e" glyph-name="e" horiz-adv-x="641" d="M547 213V55Q460 -25 360 -25Q223 -25 147 97T70 455Q70 680 136 806T322 932Q389 932 433 896T512 797Q535 756 550 662T565 418H229Q229 274 270 199T391 123Q478 123 547 213ZM227 537H406Q406 793
313 793Q227 793 227 537Z" />
<glyph unicode="f" glyph-name="f" horiz-adv-x="385" d="M117 0V768H45V907H117V1051Q117 1123 133 1181T185 1287T285 1361T436 1386V1253Q353 1253 315 1204T276 1042V907H365V768H276V0H117Z" />
<glyph unicode="g" glyph-name="g" horiz-adv-x="681" d="M659 768H539Q590 682 590 547Q590 377 496 283Q466 253 429 237T362 216T306 207T266 188T252 145Q252 113 274 96T333 71T413 55T505 24T592 -35Q657 -100 657 -221Q657 -345 570 -423T342 -502Q213
-502 127 -430T41 -250Q41 -175 82 -117T197 -27Q94 20 94 106Q94 202 221 252Q82 348 82 563Q82 716 151 811T350 907H659V768ZM227 563Q227 457 256 397T338 336Q387 336 415 394T444 553Q444 660 416 723T338 786Q287 786 257 726T227 563ZM186 -229Q186 -291
230 -329T346 -367Q416 -367 464 -328T512 -229T461 -128T338 -86Q271 -86 229 -126T186 -229Z" />
<glyph unicode="h" glyph-name="h" horiz-adv-x="724" d="M104 0V1368H264V817H268Q304 879 343 905T436 932Q471 932 504 918T568 876T616 796T635 676V0H475V657Q475 725 456 756T391 788Q320 788 264 682V0H104Z" />
<glyph unicode="i" glyph-name="i" horiz-adv-x="362" d="M102 0V907H262V0H102ZM90 1294Q90 1333 117 1359T182 1386T247 1360T274 1294Q274 1256 247 1229T182 1202T117 1229T90 1294Z" />
<glyph unicode="j" glyph-name="j" horiz-adv-x="342" d="M-10 -489V-336Q48 -326 69 -283T90 -133V907H250V-66Q250 -183 246 -225T227 -309Q171 -470 -10 -489ZM72 1294Q72 1333 99 1359T164 1386T229 1360T256 1294Q256 1256 229 1229T164 1202T99 1229T72 1294Z" />
<glyph unicode="k" glyph-name="k" horiz-adv-x="704" d="M98 0V1368H258V0H98ZM522 0L274 467L502 907H670L428 477L700 0H522Z" />
<glyph unicode="l" glyph-name="l" horiz-adv-x="342" d="M90 0V1368H250V0H90Z" />
<glyph unicode="m" glyph-name="m" horiz-adv-x="1087" d="M1004 0H844V645Q844 710 825 745T758 780Q720 780 693 757T631 674V0H471V643Q471 713 451 746T383 780Q348 780 321 756T258 672V0H98V907H258V809H262Q299 870 337 896T430 922Q491 922 534 891T616
786Q672 867 710 894T803 922Q888 922 946 856T1004 655V0Z" />
<glyph unicode="n" glyph-name="n" horiz-adv-x="724" d="M100 0V907H260V809H264Q301 869 339 895T432 922Q520 922 575 853T631 653V0H471V649Q471 780 385 780Q316 780 260 672V0H100Z" />
<glyph unicode="o" glyph-name="o" horiz-adv-x="704" d="M68 453Q68 676 144 804T352 932T560 804T637 453Q637 232 561 104T352 -25T144 103T68 453ZM231 453Q231 127 354 127Q412 127 442 211T473 453Q473 780 350 780Q292 780 262 696T231 453Z" />
<glyph unicode="p" glyph-name="p" horiz-adv-x="724" d="M100 -489V907H260V842H264Q316 922 401 922Q513 922 587 785T662 440Q662 236 589 106T401 -25Q324 -25 264 55H260V-489H100ZM260 690V209Q290 165 315 146T371 127Q394 127 414 141T455 187T486 285T498
442Q498 770 356 770Q294 770 260 690Z" />
<glyph unicode="q" glyph-name="q" horiz-adv-x="724" d="M471 -489V53H467Q417 -25 328 -25Q216 -25 141 102T66 451Q66 670 138 796T326 922Q415 922 467 840H471V907H631V-489H471ZM471 217V678Q449 726 423 748T360 770Q296 770 263 686T229 442Q229 294 267
211T371 127Q434 127 471 217Z" />
<glyph unicode="r" glyph-name="r" horiz-adv-x="512" d="M104 0V907H264V662H268Q316 825 347 873T436 922Q479 922 518 895L506 731Q472 754 436 754Q393 754 358 708T304 596T274 467T264 360V0H104Z" />
<glyph unicode="s" glyph-name="s" horiz-adv-x="512" d="M57 49V225Q107 172 142 150T215 127Q249 127 272 149T295 205Q295 242 272 290T215 387T149 488T92 601T68 719Q68 811 123 871T264 932Q340 932 416 874V723Q338 786 279 786Q250 786 233 768T215 719Q215
683 239 638T299 545T369 446T428 332T453 209Q453 108 391 42T236 -25Q150 -25 57 49Z" />
<glyph unicode="t" glyph-name="t" horiz-adv-x="468" d="M446 152V10Q361 -25 305 -25Q137 -25 137 178V768H33V782Q146 921 283 1141H297V907H446V768H297V250Q297 182 310 155T360 127Q393 127 446 152Z" />
<glyph unicode="u" glyph-name="u" horiz-adv-x="724" d="M618 907V0H459V98H455Q419 36 382 11T293 -14Q205 -14 147 53T88 246V907H248V258Q248 129 334 129Q371 129 404 156T459 236V907H618Z" />
<glyph unicode="v" glyph-name="v" horiz-adv-x="618" d="M287 -20L14 907H174L307 389H311L444 907H604L332 -20H287Z" />
<glyph unicode="w" glyph-name="w" horiz-adv-x="917" d="M258 -20L12 907H174L289 420H293L428 907H489L625 420H629L743 907H905L659 -20H614L461 524H457L303 -20H258Z" />
<glyph unicode="x" glyph-name="x" horiz-adv-x="661" d="M31 0L240 463L31 907H199L324 618L442 907H606L410 463L629 0H461L324 313L199 0H31Z" />
<glyph unicode="y" glyph-name="y" horiz-adv-x="641" d="M72 -500L256 160L16 907H182L330 434H334L465 907H625L231 -500H72Z" />
<glyph unicode="z" glyph-name="z" horiz-adv-x="575" d="M29 0L311 768H55V907H532L246 139H539V0H29Z" />
<glyph unicode="{" glyph-name="braceleft" horiz-adv-x="684" d="M59 360V524Q176 528 221 601T266 852V1006Q266 1228 336 1315T571 1403H639V1251H608Q501 1251 469 1211T436 1040V895Q436 691 390 591T225 442Q343 393 389 294T436 -10V-156Q436 -286 468
-326T608 -367H639V-518H571Q406 -518 336 -431T266 -121V33Q266 210 221 283T59 360Z" />
<glyph unicode="|" glyph-name="bar" horiz-adv-x="1079" d="M461 -512V1536H621V-512H461Z" />
<glyph unicode="}" glyph-name="braceright" horiz-adv-x="684" d="M627 524V360Q510 356 465 283T420 33V-121Q420 -343 350 -430T115 -518H47V-367H76Q183 -367 216 -326T250 -156V-10Q250 194 296 293T461 442Q343 491 297 591T250 895V1040Q250 1170 218 1210T78
1251H47V1403H115Q280 1403 350 1316T420 1006V852Q420 674 465 601T627 524Z" />
<glyph unicode="~" glyph-name="asciitilde" horiz-adv-x="1343" d="M1212 846V700Q1061 573 930 573Q885 573 834 586T747 614T657 655Q598 684 572 696T502 721T424 735Q296 735 131 598V741Q205 800 282 833T424 866Q487 866 548 846T688 786Q745 758 772 745T844
719T924 705Q993 705 1059 737T1212 846Z" />
</font>
</defs>
</svg>
